<?xml version="1.0" encoding="UTF-8"?>
<svg id="site-logo-svg"
    xmlns="http://www.w3.org/2000/svg" viewBox="0 0 108.87 69.07">
    <defs>
        <style>.cls-1{fill:currentColor;}</style>
    </defs>
    <path class="cls-1" d="M28.62,32.42c-1.11-2.44-3.29-3.66-6.54-3.66-3.77,0-6.31,1.22-7.61,3.66-.71,1.39-1.07,3.46-1.07,6.22v30.43H0V18.6H12.85v7.38c1.64-2.63,3.18-4.5,4.64-5.61,2.57-1.98,5.89-2.97,9.97-2.97,3.87,0,6.99,.85,9.37,2.55,1.92,1.58,3.37,3.6,4.36,6.08,1.73-2.97,3.88-5.15,6.45-6.54,2.72-1.39,5.75-2.09,9.09-2.09,2.23,0,4.42,.43,6.59,1.3,2.16,.87,4.13,2.38,5.89,4.55,1.42,1.76,2.38,3.93,2.88,6.49,.31,1.7,.46,4.19,.46,7.47l-.09,31.87h-13.54V36.88c0-1.92-.31-3.49-.93-4.73-1.18-2.35-3.34-3.53-6.49-3.53-3.65,0-6.17,1.52-7.56,4.55-.71,1.61-1.07,3.54-1.07,5.8v30.1h-13.31v-30.1c0-3-.31-5.18-.93-6.54Z"/>
    <rect class="cls-1" x="82.89" y="56.08" width="12.99" height="12.99"/>
    <rect class="cls-1" x="95.88" y="43.09" width="12.99" height="12.99"/>
    <path class="cls-1" d="M96.07,18.97v-4.27c0-.99,.33-1.89,1-2.71,.67-.82,1.87-1.21,3.62-1.16,1.75,.05,2.99,.12,3.73,.21V.28c-1.18-.09-2.1-.16-2.78-.21-.68-.05-1.44-.07-2.27-.07-7.33,0-11.95,1.52-13.87,4.55-1.83,2.04-2.74,5.77-2.74,11.18v3.25h-7.24v9.32h7.38v14.79h12.99v12.99h-12.99v12.99h13.17V28.3h8.67v-9.32h-8.67Z"/>
</svg>